{"title":"Machete Kills 2013 CAM XVID AC3 UNiQUE","uid":9097213,"size":1501850489,"categoryP":"video","categoryS":"movies","magnet":"?xt=urn:btih:0b6a2add73d2d1e7928d2f3e2ca84b721d4231e0&amp;dn=Machete+Kills+2013+CAM+XVID+AC3+UNiQUE&amp;tr=udp%3A%2F%2Ftracker.openbittorrent.com%3A80&amp;tr=udp%3A%2F%2Fopen.demonii.com%3A1337&amp;tr=udp%3A%2F%2Ftracker.coppersurfer.tk%3A6969&amp;tr=udp%3A%2F%2Fexodus.desync.com%3A6969","seeders":6,"leechers":0,"uploader":"xxxlavalxxx","files":-1,"time":1382716278,"description":" &lt;a href=&quot;http://www.imdb.com/title/tt2002718/&quot; rel=&quot;nofollow&quot; target=&quot;_NEW&quot;&gt;http://www.imdb.com/title/tt2002718/&lt;/a&gt;\n\n\nThe U.S. government recruits Machete to battle his way through Mexico in order to take down an arms dealer who looks to launch a weapon into space.\n\nDirector: Robert Rodriguez\nWriters: Kyle Ward (screenplay), Robert Rodriguez (story)\nStars: Danny Trejo, Alexa Vega, Mel Gibson\nGenres: Action | Crime | Thriller\nCountry: USA | Russia\nLanguage: English\n\n\nSource: VOBS THX\n\nNote: Was given these nice vobs. just cropped resized filtered etc came out a very watchable cam.. Enjoy\n\nGeneral\nComplete name : C:UsersrootDesktopMachete Kills 2013 CAM XVID AC3 UNiQUE.avi\nFormat : AVI\nFormat/Info : Audio Video Interleave\nFile size : 1.40 GiB\nDuration : 1h 41mn\nOverall bit rate : 1 974 Kbps\n\nVideo\nID : 0\nFormat : MPEG-4 Visual\nFormat profile : Advanced Simple@L5\nFormat settings, BVOP : 1\nFormat settings, QPel : No\nFormat settings, GMC : No warppoints\nFormat settings, Matrix : Default (H.263)\nMuxing mode : Packed bitstream\nCodec ID : XVID\nCodec ID/Hint : XviD\nDuration : 1h 41mn\nBit rate : 1 773 Kbps\nWidth : 656 pixels\nHeight : 352 pixels\nDisplay aspect ratio : 1.85:1\nFrame rate : 29.970 fps\nColor space : YUV\nChroma subsampling : 4:2:0\nBit depth : 8 bits\nScan type : Progressive\nCompression mode : Lossy\nBits/(Pixel*Frame) : 0.256\nStream size : 1.26 GiB (90%)\nWriting library : XviD 1.2.1 (UTC 2008-12-04)\n\nAudio\nID : 1\nFormat : AC-3\nFormat/Info : Audio Coding 3\nMode extension : CM (complete main)\nFormat settings, Endianness : Big\nCodec ID : 2000\nDuration : 1h 41mn\nBit rate mode : Constant\nBit rate : 192 Kbps\nChannel(s) : 2 channels\nChannel positions : Front: L R\nSampling rate : 48.0 KHz\nBit depth : 16 bits\nCompression mode : Lossy\nStream size : 139 MiB (10%)\nAlignment : Aligned on interleaves\nInterleave, duration : 64 ms (1.92 video frames)\nInterleave, preload duration : 192 ms\n\n\n &lt;a href=&quot;\nhttp://i.imgur.com/zTnI4D3.jpg&quot; rel=&quot;nofollow&quot; target=&quot;_NEW&quot;&gt;\nhttp://i.imgur.com/zTnI4D3.jpg&lt;/a&gt; &lt;a href=&quot;\nhttp://i.imgur.com/EQrJ6HZ.jpg&quot; rel=&quot;nofollow&quot; target=&quot;_NEW&quot;&gt;\nhttp://i.imgur.com/EQrJ6HZ.jpg&lt;/a&gt; &lt;a href=&quot;\nhttp://i.imgur.com/IFii4Yd.jpg&quot; rel=&quot;nofollow&quot; target=&quot;_NEW&quot;&gt;\nhttp://i.imgur.com/IFii4Yd.jpg&lt;/a&gt; &lt;a href=&quot;\nhttp://i.imgur.com/jjaoJdj.jpg&quot; rel=&quot;nofollow&quot; target=&quot;_NEW&quot;&gt;\nhttp://i.imgur.com/jjaoJdj.jpg&lt;/a&gt; &lt;a href=&quot;\nhttp://i.imgur.com/ZimcGjl.jpg&quot; rel=&quot;nofollow&quot; target=&quot;_NEW&quot;&gt;\nhttp://i.imgur.com/ZimcGjl.jpg&lt;/a&gt; &lt;a href=&quot;\nhttp://i.imgur.com/nEQCdcj.jpg&quot; rel=&quot;nofollow&quot; target=&quot;_NEW&quot;&gt;\nhttp://i.imgur.com/nEQCdcj.jpg&lt;/a&gt;\n","torrent":{"xt":"urn:btih:0b6a2add73d2d1e7928d2f3e2ca84b721d4231e0","amp;dn":"Machete+Kills+2013+CAM+XVID+AC3+UNiQUE","amp;tr":["udp%3A%2F%2Ftracker.openbittorrent.com%3A80","udp%3A%2F%2Fopen.demonii.com%3A1337","udp%3A%2F%2Ftracker.coppersurfer.tk%3A6969","udp%3A%2F%2Fexodus.desync.com%3A6969"],"infoHash":"0b6a2add73d2d1e7928d2f3e2ca84b721d4231e0","infoHashBuffer":{"type":"Buffer","data":[11,106,42,221,115,210,209,231,146,141,47,62,44,168,75,114,29,66,49,224]},"announce":[],"urlList":[]}}